<?xml version="1.0" standalone="no"?>
<!DOCTYPE svg PUBLIC "-//W3C//DTD SVG 20010904//EN"
 "http://www.w3.org/TR/2001/REC-SVG-20010904/DTD/svg10.dtd">
<svg version="1.0" xmlns="http://www.w3.org/2000/svg"
 width="512.000000pt" height="512.000000pt" viewBox="0 0 512.000000 512.000000"
 preserveAspectRatio="xMidYMid meet">
<metadata>
Created by potrace 1.14, written by Peter Selinger 2001-2017
</metadata>
<g transform="translate(0.000000,512.000000) scale(0.100000,-0.100000)"
fill="#000000" stroke="none">
<path d="M345 5106 c-143 -35 -292 -172 -320 -293 -3 -10 -9 -36 -14 -58 -7
-26 -11 -787 -11 -2206 0 -2086 1 -2169 19 -2221 31 -89 60 -139 117 -195 58
-59 148 -107 229 -122 31 -7 853 -10 2205 -10 2339 0 2198 -3 2312 55 108 55
203 183 227 309 7 31 10 853 10 2205 0 2339 3 2198 -55 2312 -55 108 -183 203
-309 227 -80 16 -4347 13 -4410 -3z m1740 -1207 c190 -35 340 -126 470 -284
50 -61 114 -193 127 -260 0 -2 7 -30 14 -62 21 -90 12 -249 -21 -351 -59 -184
-159 -314 -323 -419 -85 -55 -198 -95 -302 -107 -19 -3 -216 -5 -437 -5 l-403
-1 0 -540 c0 -527 -1 -542 -21 -581 -15 -30 -32 -46 -65 -61 -79 -34 -156 -8
-196 65 -16 30 -17 121 -18 1253 0 672 3 1236 6 1253 7 34 53 87 88 101 29 12
1019 11 1081 -1z m2061 -18 c93 -69 77 -214 -28 -256 -29 -11 -79 -15 -211
-15 -208 0 -241 -10 -276 -82 -20 -41 -21 -59 -21 -281 l0 -237 240 0 c219 0
244 -2 279 -19 74 -38 100 -124 62 -200 -38 -74 -65 -81 -343 -81 l-238 0 0
-685 c0 -778 3 -745 -77 -792 -36 -21 -52 -24 -89 -19 -59 8 -89 29 -114 80
-20 41 -20 57 -20 729 l0 687 -92 0 c-99 0 -142 15 -180 63 -46 58 -28 161 36
208 27 21 44 24 134 27 l102 4 1 236 c1 249 2 270 21 342 26 98 119 214 209
261 102 52 139 58 364 56 204 -2 211 -3 241 -26z"/>
<path d="M1210 3159 l0 -450 423 4 c448 4 448 4 544 55 88 46 186 168 215 267
72 248 -95 516 -351 565 -31 6 -220 10 -442 10 l-389 0 0 -451z"/>
</g>
</svg>
